# xmcd CD database file
#
# Track frame offsets:
#	180
#	12027
#	21401
#	34138
#	51334
#	64968
#	81345
#	111401
#	122648
#	136398
#	153324
#	167129
#	184546
#	209146
#	221145
#	235231
#
# Disc length: 3342 seconds
#
# Revision: 0
# Processed by: cddbd v1.5PL3 Copyright (c) Steve Scherf et al.
# Submitted via: CDex 1.51
#
DISCID=ed0d0c10
DTITLE=The Ralph Sharon Trio - Harry Warren Songbook
DYEAR=1997
DGENRE=Jazz
TTITLE0=That's Amore
TTITLE1=You'r Getting to be a habit with me
TTITLE2=September in the rain
TTITLE3=This heart of mine - my heart tells me
TTITLE4=You must have been a beautiful baby
TTITLE5=Spring isn't everything
TTITLE6=Serenade in blue - at last
TTITLE7=The more I see you
TTITLE8=Shuffle off to Buffalo
TTITLE9=Harry's minor lament
TTITLE10=You'll never know
TTITLE11=Jeepers creepers
TTITLE12=I only have eyes for you
TTITLE13=An affair to rember
TTITLE14=I've got a gal in Kalamazoo
TTITLE15=Lullaby of Broadway
EXTD=YEAR: 1997
EXTT0=
EXTT1=
EXTT2=
EXTT3=
EXTT4=
EXTT5=
EXTT6=
EXTT7=
EXTT8=
EXTT9=
EXTT10=
EXTT11=
EXTT12=
EXTT13=
EXTT14=
EXTT15=
PLAYORDER=
